<?xml version="1.0" encoding="UTF-8"?><svg id="Layer_1" xmlns="http://www.w3.org/2000/svg" viewBox="0 0 1366 768"><path d="M1005.91,71.77v624.45H360.09V71.77h645.82ZM755.71,268.14c3.45-5.36,8.11-10.7,11.25-16.46,6.19-11.37-.56-15.77-9.43-22.01-79.57-55.94-246.26-39.39-239.03,84.87,3.6,61.9,48.31,76.93,99.45,92.47,19.69,5.98,65.97,14.96,78.47,29.98,14.07,16.92,6.94,38.23-11.4,48.33-37.28,20.54-97.23,3.51-132.33-15.49-6.2-3.36-16.41-13.36-21.91-5.31-5.25,13.45-18.32,27.17-23.17,40.19-3.1,8.31,2.37,11.73,8.51,16.31,64.9,48.42,200.9,57.19,252.68-14.68,23.29-32.32,24.31-81.76-.86-113.44-27.94-35.16-76.65-43.13-117.35-55.08-15.74-4.62-42.91-10.4-48.16-27.99-8.91-29.84,12.43-44.6,39.43-46.18s54.02,4.05,79.14,15.95c5.15,2.44,16.46,10.67,21.56,8.59,3.32-1.36,10.64-16.13,13.16-20.05ZM884.27,288.26c2.88-2.98,11.68-9.67,12.48-13.45.3-1.42.06-2.2-.58-3.44-.9-1.72-7.18-7.43-9.04-9.23-7.32-7.07-14.99-14.33-22.27-21.59-7.04-7.02-15.42-17.49-23.14-23.16-1.7-1.25-2.74-1.66-4.84-1.86-11.74-1.14-25.28.94-37.23,0-8.6,3.28,1.05,9.33,3.68,13.44l46.59,46.05-.55,1.19c-13.22,11.36-24.64,24.51-36.88,36.85-3.34,3.37-15.72,13.19-16.16,17.4-.22,2.05,1.03,4.56,3.32,4.55,11.59-.88,24.6,1.06,36,0,1.26-.12,2.32-.2,3.49-.77,1.3-.63,9.68-8.79,11.43-10.51,11.52-11.3,22.48-23.8,33.71-35.44Z" fill="#f5f3f1"/><path d="M755.71,268.14c-2.52,3.92-9.84,18.69-13.16,20.05-5.1,2.08-16.4-6.15-21.56-8.59-25.12-11.9-51.14-17.59-79.14-15.95s-48.34,16.34-39.43,46.18c5.26,17.59,32.42,23.37,48.16,27.99,40.69,11.94,89.41,19.91,117.35,55.08,25.17,31.69,24.15,81.12.86,113.44-51.78,71.87-187.78,63.1-252.68,14.68-6.14-4.58-11.61-8-8.51-16.31,4.85-13.02,17.93-26.73,23.17-40.19,5.49-8.05,15.71,1.95,21.91,5.31,35.1,19,95.05,36.03,132.33,15.49,18.34-10.1,25.47-31.41,11.4-48.33-12.49-15.02-58.78-24-78.47-29.98-51.14-15.54-95.84-30.56-99.45-92.47-7.23-124.26,159.46-140.81,239.03-84.87,8.87,6.24,15.62,10.64,9.43,22.01-3.13,5.76-7.8,11.1-11.25,16.46Z" fill="#0b2133"/><path d="M884.27,288.26c-11.22,11.64-22.19,24.14-33.71,35.44-1.74,1.71-10.12,9.87-11.43,10.51-1.17.57-2.23.65-3.49.77-11.4,1.07-24.41-.87-36,0-2.29.01-3.54-2.49-3.32-4.55.44-4.21,12.82-14.03,16.16-17.4,12.24-12.34,23.66-25.48,36.88-36.85l.55-1.19-46.59-46.05c-2.63-4.12-12.28-10.17-3.68-13.44,11.95.94,25.48-1.14,37.23,0,2.11.2,3.14.61,4.84,1.86,7.72,5.67,16.1,16.14,23.14,23.16,7.28,7.26,14.95,14.52,22.27,21.59,1.86,1.8,8.14,7.51,9.04,9.23.65,1.24.88,2.02.58,3.44-.8,3.79-9.6,10.47-12.48,13.45Z" fill="#fe7127"/></svg>