<?xml version="1.0" encoding="UTF-8"?><svg id="Layer_1" xmlns="http://www.w3.org/2000/svg" viewBox="0 0 1366 768"><path d="M374.2,125.31h557.43s0,517.89,0,517.89H374.2V125.31ZM549.52,334.99c.52-.77,3.31-4.88,3.02-5.36-8.32-6.02-18.79-7.33-28.86-6.56-10.63.81-21.29,6.64-21.54,18.45-.23,11.12,8.34,15.34,17.63,17.81,5.38,1.43,24.5,2.97,19.03,12.75-3.23,5.77-16.1,3.84-21.44,2.3-3.61-1.04-6.98-3.23-10.35-4.82-.59,0-6.39,9.23-6.28,9.81.43,2.3,10.37,5.84,12.76,6.46,15.35,4.02,42.49,1.63,40.27-20.04-1.69-16.56-24.37-13.62-34.01-19.61-3.66-2.28-4.26-7.56-.64-9.99,6.8-4.58,20.37-.5,26.83,3.48.97-1.61,2.58-3.24,3.57-4.69ZM429.84,384.25h19.47l32.62-30.6-32.11-30.09h-19.98l31.83,30.53-31.83,30.16ZM566.92,323.56v62.71h14.67v-19.72h19.47c.69,0,5.48-1.29,6.46-1.63,14.67-5.05,19.7-20.77,9.96-33-4.87-6.11-14.02-7.96-21.46-8.38-9.52-.53-19.54.44-29.11.02ZM665.81,323.56c-10.23-.74-21.3.55-31.61,0v62.71h15.17v-19.72h12.39c1.1,0,7.21,10.62,8.34,12.26.36.52,1.14.77,1.65,1.51,1.23,1.75,2.5,4.02,3.41,5.96h16.19l-15.17-21.51c-.18-1.12.2-.58.73-.75,11.57-3.72,16.14-15.4,12-26.65-3.35-9.09-14.1-13.16-23.11-13.81ZM719.18,323.56h-14.67v62.71h14.67v-62.71ZM749.27,323.56h-13.4v62.71h14.16v-40.97c1.58-.36,1.06,1.5,1.81,2.49,8.01,10.49,17.72,20.95,26.02,31.27,1.78,2.21,3.19,5.16,5.3,7.21h13.91v-61.95c0-.05-.71-.76-.76-.76h-13.4v41.47c-4.3-4.46-7.78-9.63-11.65-14.42-2.47-3.06-5.05-6.32-7.57-9.46-4.75-5.89-9.79-11.58-14.41-17.6ZM864.85,323.56h-57.16v12.14h21.24v50.58h14.67v-50.58h21.24v-12.14ZM598.79,409.05c-5.95-4.35-20.37-5.76-25.57-.03-1.86,2.05-1.58,3.63-2.29,5.72-.18.53-1.03.05-1.03,1.64s.85,1.1,1.04,1.64c.24.68,0,1.56.42,2.52,2.67,6,11.67,5.78,16.93,7.85,3.09,1.22,7.06,4.04,3.61,7.39-4.72,4.6-14.44.68-19.6-1.5-1.03,1.91-3.45,2.8-3.86,5.09,7.27,3.82,15.67,6,23.76,3.28,5.44-1.83,9.76-7.33,7.68-13.19-.06-.17-1.97-2.72-2.09-2.84-4.63-4.56-17.75-4.93-19.47-8.99-2.46-5.77,4.22-7.02,8.45-6.43,1.86.26,8.23,2.97,8.68,2.86.32-.08,3.52-4.76,3.34-5.01ZM806.47,431.49c10.45,22.95,49.03,11.87,39.55-14.5-4.99-13.9-28.23-15.49-36.72-4.58-1.65,2.12-3.9,6.47-4.12,9.03-.35,4-.24,6.68,1.29,10.05ZM647.85,412.07c-.4-1.24.77-6.57-.25-6.57h-32.12v6.57h13.15v30.85h7.08v-30.85h12.14ZM674.16,405.49h-7.59v24.53c0,.49,1.13,4.43,1.42,5.16,3.21,8.08,15.72,10.22,23.2,7.82,3.79-1.21,10.79-6.6,10.79-10.96v-26.55h-7.59v26.05c0,.4-1.4,2.78-1.82,3.24-3.27,3.56-12.45,3.58-15.91.32-.68-.64-2.51-3.9-2.51-4.58v-25.03ZM786.96,405.49h-7.59v37.43h7.59v-37.43ZM743.71,406c-6.43-.81-14.39.6-20.99,0v36.92h20.49c5.13,0,13.54-6.17,15.31-10.99,4.27-11.58-2.31-24.37-14.81-25.93Z" fill="#0f1c26"/><polygon points="374.2 125.31 374.2 124.8 932.13 124.8 932.13 643.2 931.62 643.2 931.63 125.3 374.2 125.31" fill="#eeeae4"/><path d="M749.27,323.56c4.62,6.02,9.66,11.7,14.41,17.6,2.53,3.13,5.1,6.4,7.57,9.46,3.88,4.79,7.35,9.96,11.65,14.42v-41.47h13.4c.05,0,.76.7.76.76v61.95h-13.91c-2.11-2.04-3.52-5-5.3-7.21-8.3-10.33-18.01-20.79-26.02-31.27-.75-.99-.24-2.85-1.81-2.49v40.97h-14.16v-62.71h13.4Z" fill="#eeeae4"/><path d="M665.81,323.56c9.01.65,19.76,4.72,23.11,13.81,4.14,11.25-.42,22.92-12,26.65-.54.17-.92-.37-.73.75l15.17,21.51h-16.19c-.91-1.94-2.18-4.21-3.41-5.96-.52-.73-1.29-.99-1.65-1.51-1.13-1.64-7.25-12.26-8.34-12.26h-12.39v19.72h-15.17v-62.71c10.32.55,21.38-.74,31.61,0ZM649.37,354.92h17.45c.34,0,4.61-1.61,5.16-1.92,5.15-2.94,4.76-13.15-.5-15.88-.46-.24-3.92-1.41-4.15-1.41h-17.96v19.22Z" fill="#eeeae4"/><path d="M566.92,323.56c9.57.42,19.59-.56,29.11-.02,7.45.42,16.6,2.27,21.46,8.38,9.74,12.23,4.7,27.95-9.96,33-.99.34-5.78,1.63-6.46,1.63h-19.47v19.72h-14.67v-62.71ZM598.54,335.7c-5.24-.62-11.58.46-16.95,0v19.22h16.95c1.58,0,5.35-1.89,6.55-3.07.43-.42.46-1.19.77-1.62.37-.49,1.06-.52,1.41-1.23,2.22-4.54-.68-10.54-5.17-12.32-.63-.25-2.97-.91-3.57-.98Z" fill="#eeeae4"/><path d="M549.52,334.99c-.99,1.45-2.61,3.08-3.57,4.69-6.46-3.98-20.03-8.05-26.83-3.48-3.62,2.44-3.02,7.72.64,9.99,9.64,5.99,32.32,3.04,34.01,19.61,2.22,21.67-24.92,24.05-40.27,20.04-2.39-.62-12.32-4.16-12.76-6.46-.11-.58,5.69-9.82,6.28-9.81,3.37,1.59,6.74,3.78,10.35,4.82,5.34,1.54,18.22,3.47,21.44-2.3,5.47-9.78-13.65-11.32-19.03-12.75-9.29-2.47-17.87-6.7-17.63-17.81.25-11.81,10.91-17.64,21.54-18.45,10.07-.77,20.53.54,28.86,6.56.29.49-2.5,4.6-3.02,5.36Z" fill="#eeeae4"/><polygon points="864.85 323.56 864.85 335.7 843.61 335.7 843.61 386.28 828.94 386.28 828.94 335.7 807.7 335.7 807.7 323.56 864.85 323.56" fill="#eeeae4"/><polygon points="429.84 384.25 461.67 354.09 429.84 323.56 449.82 323.56 481.93 353.65 449.32 384.25 429.84 384.25" fill="#f56c14"/><rect x="704.51" y="323.56" width="14.67" height="62.71" fill="#eeeae4"/><path d="M743.71,406c12.5,1.57,19.08,14.35,14.81,25.93-1.78,4.82-10.18,10.99-15.31,10.99h-20.49v-36.92c6.6.6,14.56-.81,20.99,0ZM742.7,412.07c-3.65-.57-8.59.42-12.39,0v24.78h11.89c.76,0,6.8-3.35,7.55-4.08,6.43-6.34,1.73-19.33-7.05-20.7Z" fill="#eeeae4"/><path d="M806.47,431.49c-1.54-3.37-1.65-6.06-1.29-10.05.23-2.56,2.47-6.91,4.12-9.03,8.5-10.91,31.73-9.32,36.72,4.58,9.48,26.37-29.1,37.45-39.55,14.5ZM813.55,428.96c7.45,17.06,33.35,6.89,25.25-10.82-3.66-8.01-17.05-9.35-22.77-3.05-3.13,3.44-4.81,8.74-3.23,13.26.14.39.68.46.75.61Z" fill="#eeeae4"/><path d="M674.16,405.49v25.03c0,.68,1.83,3.94,2.51,4.58,3.46,3.25,12.64,3.23,15.91-.32.42-.45,1.82-2.84,1.82-3.24v-26.05h7.59v26.55c0,4.36-7,9.74-10.79,10.96-7.48,2.4-19.99.26-23.2-7.82-.29-.73-1.42-4.67-1.42-5.16v-24.53h7.59Z" fill="#eeeae4"/><path d="M598.79,409.05c.18.24-3.02,4.93-3.34,5.01-.44.11-6.81-2.61-8.68-2.86-4.24-.58-10.91.67-8.45,6.43,1.73,4.06,14.85,4.43,19.47,8.99.13.12,2.03,2.68,2.09,2.84,2.08,5.87-2.24,11.37-7.68,13.19-8.09,2.71-16.49.54-23.76-3.28.41-2.29,2.83-3.18,3.86-5.09,5.16,2.18,14.88,6.1,19.6,1.5,3.45-3.36-.52-6.18-3.61-7.39-5.26-2.07-14.26-1.85-16.93-7.85-.43-.96-.18-1.84-.42-2.52-.19-.54-1.04-.04-1.04-1.64s.85-1.11,1.03-1.64c.71-2.08.43-3.67,2.29-5.72,5.2-5.72,19.62-4.32,25.57.03Z" fill="#eeeae4"/><path d="M647.85,412.07h-12.14v30.85h-7.08v-30.85h-13.15v-6.57h32.12c1.02,0-.15,5.33.25,6.57Z" fill="#eeeae4"/><rect x="779.37" y="405.49" width="7.59" height="37.43" fill="#eeeae4"/><path d="M649.37,354.92v-19.22h17.96c.23,0,3.69,1.18,4.15,1.41,5.26,2.73,5.65,12.94.5,15.88-.55.31-4.82,1.92-5.16,1.92h-17.45Z" fill="#0f1c26"/><path d="M598.54,335.7c.6.07,2.93.73,3.57.98,4.49,1.79,7.39,7.78,5.17,12.32-.35.71-1.05.74-1.41,1.23-.31.42-.33,1.19-.77,1.62-1.2,1.17-4.98,3.07-6.55,3.07h-16.95v-19.22c5.37.46,11.7-.62,16.95,0Z" fill="#0f1c26"/><path d="M742.7,412.07c8.77,1.37,13.48,14.36,7.05,20.7-.75.74-6.79,4.08-7.55,4.08h-11.89v-24.78c3.81.42,8.74-.57,12.39,0Z" fill="#0f1c26"/><path d="M813.55,428.96c-.06-.14-.61-.22-.75-.61-1.58-4.52.1-9.82,3.23-13.26,5.72-6.3,19.11-4.96,22.77,3.05,8.1,17.71-17.8,27.88-25.25,10.82Z" fill="#0f1c26"/></svg>