<?xml version="1.0" encoding="UTF-8"?><svg id="Layer_1" xmlns="http://www.w3.org/2000/svg" viewBox="0 0 1366 768"><path d="M1043.42,37.06v693.88H322.58V37.06h720.84ZM548.42,319.59c1.09-1.23,6.06-5.58,5.78-7.25-.76-4.61-21.6-9.59-26.02-9.9-17.96-1.28-41.78,6.18-40.29,28.08,1.58,23.2,31.45,19.62,45.18,27.28,5.63,3.14,5.07,10.3-.69,13.13-7.99,3.92-20.88,2.24-28.91-1.16-2.1-.89-7.47-4.71-9.03-4.31-1.68.43-6.8,9.4-8.98,10.76-1.04,1.98,5.65,5.57,7.23,6.35,19.51,9.69,63.6,10.15,63.6-19.56,0-23.95-29.47-21.15-44.5-27.96-9.24-4.19-4.99-14.03,3.59-16.3,10.04-2.67,20.82.66,29.67,5.29.73-.17,2.55-3.53,3.36-4.44ZM393.71,384.34h25.41l42.97-41.05-1.63-2.29c-5.8-3.26-37.23-37.89-39.99-37.89h-26.08l41.28,40.19-41.96,41.05ZM659.29,303.1v83.94h18.97v-25.72h16.94c5.02,8.85,10.46,17.68,16.6,25.72h20.66l-18.96-27.43v-.99c9.32-3.22,13.38-10.36,16.32-19.11.19-.57,1.16-.54,1.27-1.01,1.34-5.71-.65-13.86-3.25-18.93-11.97-23.42-47.16-14.75-68.54-16.47ZM956.7,303.1h-73.85v16.25h27.1v67.7h18.97v-67.7h27.78v-16.25ZM615.59,303.78h-43.7v83.27h18.97v-25.72c13.45-.25,31.88,1.56,43-7.46,21.72-17.62,7.5-47.47-18.28-50.08ZM769.04,303.78h-18.97v83.27h18.97v-83.27ZM808.67,303.78h-18.63v83.27h17.61v-54.16c1.31-.31,1.3.47,1.91,1.14,3.82,4.19,8.1,9.86,11.65,14.28,10.23,12.74,20.03,25.9,30.14,38.74h17.95v-83.27h-18.29v56.19c-10.84-12.58-19.84-26.73-29.82-40.08-.47-.63-1.36-.94-1.9-1.65-3.6-4.77-6.72-9.91-10.63-14.46ZM585.81,423.99c3.9-5.64,12.87-4.08,18.58-2.07,1.2.42,3.85,2.46,4.37,2.34.39-.09,4.64-5.88,4.16-6.77-.67-1.26-6.85-3.94-8.5-4.4-10.82-3-29.34-.56-29.07,14.16.24,13.27,14.84,12.76,23.79,16.17,2.18.83,5.26,1.85,5.81,4.36,2.08,9.42-13.97,8.17-19.66,6.09-1.9-.69-5.53-3.54-6.85-3.14-.66.2-4.91,6.12-4.51,6.7,12.61,9.51,42.59,10.08,39.97-11.83-1.46-12.23-18.93-9.96-26.42-14.91-1.88-1.24-3.22-3.7-2.69-5.94.12-.53.86-.53,1.03-.77ZM901.67,412.27c-30.9,4.45-29.4,54.74,10.01,51.3,10.97-.96,22.27-11.66,23.34-22.71,1.87-19.19-15.28-31.19-33.35-28.59ZM677.58,412.77h-42.68v8.12h16.26v42.65c1.65-.22,10.16.72,10.16-1.02v-41.63h16.26v-8.12ZM710.1,412.77h-8.81v33.51c0,.65,1.87,6.13,2.34,7.14,6.28,13.51,31.89,13.83,39.25.57.85-1.53,3.13-7.63,3.13-9.06v-32.16h-9.48v32.16c0,.63-1.24,4.28-1.65,5.12-2.68,5.5-11.75,6.7-16.91,4.63-3.17-1.27-7.86-7.01-7.86-10.43v-31.48ZM797.83,412.77c-7.49-.84-16.4.62-24.05,0v50.09h24.73c5.72,0,15.11-6.1,18.25-10.88.69-1.05,4.32-8.08,4.43-8.56,1.41-6.18-.8-13.65-3.91-18.95-3.86-6.57-11.93-10.87-19.44-11.72ZM855.76,412.77h-9.48v49.76c0,1.7,8.02.81,9.48,1.02v-50.77Z" fill="#f2f1ee"/><path d="M808.67,303.78c3.91,4.55,7.03,9.68,10.63,14.46.53.71,1.43,1.02,1.9,1.65,9.98,13.35,18.97,27.5,29.82,40.08v-56.19h18.29v83.27h-17.95c-10.11-12.84-19.91-26-30.14-38.74-3.55-4.42-7.82-10.09-11.65-14.28-.61-.66-.6-1.44-1.91-1.14v54.16h-17.61v-83.27h18.63Z" fill="#0c273c"/><path d="M659.29,303.1c21.38,1.72,56.57-6.95,68.54,16.47,2.59,5.07,4.59,13.22,3.25,18.93-.11.47-1.08.44-1.27,1.01-2.94,8.75-6.99,15.89-16.32,19.11v.99s18.97,27.43,18.97,27.43h-20.66c-6.13-8.04-11.58-16.87-16.6-25.72h-16.94v25.72h-18.97v-83.94ZM678.26,345.75h20.66c2.64,0,8.59-3.14,10.19-5.39,3.17-4.44,3.08-12.87-.77-16.88-1.26-1.31-6.45-4.13-8.06-4.13h-22.02v26.4Z" fill="#0c273c"/><path d="M615.59,303.78c25.78,2.61,40,32.46,18.28,50.08-11.12,9.02-29.56,7.21-43,7.46v25.72h-18.97v-83.27h43.7ZM590.86,345.75h21.34c3,0,10.2-4.65,11.52-7.44,1.57-3.33,1.48-10.5-.69-13.53-.99-1.39-8-5.43-9.47-5.43h-22.7v26.4Z" fill="#0c273c"/><path d="M548.42,319.59c-.81.91-2.63,4.27-3.36,4.44-8.85-4.63-19.63-7.95-29.67-5.29-8.58,2.28-12.83,12.11-3.59,16.3,15.03,6.81,44.5,4.01,44.5,27.96,0,29.7-44.09,29.24-63.6,19.56-1.58-.78-8.27-4.37-7.23-6.35,2.18-1.36,7.29-10.32,8.98-10.76,1.56-.4,6.93,3.42,9.03,4.31,8.02,3.39,20.92,5.08,28.91,1.16,5.76-2.83,6.32-9.99.69-13.13-13.73-7.66-43.6-4.09-45.18-27.28-1.49-21.89,22.33-29.36,40.29-28.08,4.42.32,25.25,5.3,26.02,9.9.28,1.67-4.7,6.02-5.78,7.25Z" fill="#0c273c"/><polygon points="956.7 303.1 956.7 319.35 928.93 319.35 928.93 387.05 909.96 387.05 909.96 319.35 882.86 319.35 882.86 303.1 956.7 303.1" fill="#0c273c"/><path d="M393.71,384.34l41.96-41.05-41.28-40.19h26.08c2.76,0,34.19,34.63,39.99,37.89l1.63,2.29-42.97,41.05h-25.41Z" fill="#ef5c14"/><rect x="750.07" y="303.78" width="18.97" height="83.27" fill="#0c273c"/><path d="M901.67,412.27c18.07-2.6,35.22,9.4,33.35,28.59-1.08,11.05-12.37,21.75-23.34,22.71-39.41,3.44-40.91-46.85-10.01-51.3ZM892.56,448.44c13.45,16.16,38.07,3.23,31.14-17.25-6.95-20.56-40.95-10.79-33.18,13.52.21.65,1.6,3.19,2.04,3.72Z" fill="#0c273c"/><path d="M797.83,412.77c7.51.84,15.58,5.15,19.44,11.72,3.11,5.3,5.32,12.77,3.91,18.95-.11.48-3.74,7.51-4.43,8.56-3.14,4.78-12.53,10.88-18.25,10.88h-24.73v-50.09c7.65.62,16.56-.84,24.05,0ZM782.59,455.42h13.21c.94,0,7.27-2.48,8.4-3.11,8.1-4.51,8.88-17.85,4.26-25.11-2.04-3.21-5.45-4.88-9.06-5.84-.92-.24-5.07-1.13-5.64-1.13h-11.18v35.2Z" fill="#0c273c"/><path d="M710.1,412.77v31.48c0,3.42,4.69,9.15,7.86,10.43,5.17,2.07,14.24.88,16.91-4.63.41-.84,1.65-4.49,1.65-5.12v-32.16h9.48v32.16c0,1.43-2.28,7.53-3.13,9.06-7.35,13.26-32.97,12.94-39.25-.57-.47-1.01-2.34-6.49-2.34-7.14v-33.51h8.81Z" fill="#0c273c"/><path d="M585.81,423.99c-.16.24-.9.23-1.03.77-.53,2.24.81,4.7,2.69,5.94,7.49,4.94,24.96,2.68,26.42,14.91,2.62,21.92-27.36,21.34-39.97,11.83-.41-.58,3.84-6.5,4.51-6.7,1.33-.4,4.96,2.45,6.85,3.14,5.7,2.08,21.74,3.33,19.66-6.09-.55-2.51-3.64-3.54-5.81-4.36-8.95-3.41-23.54-2.9-23.79-16.17-.27-14.72,18.25-17.16,29.07-14.16,1.65.46,7.83,3.14,8.5,4.4.48.89-3.77,6.68-4.16,6.77-.52.12-3.16-1.92-4.37-2.34-5.72-2.02-14.68-3.58-18.58,2.07Z" fill="#0c273c"/><path d="M677.58,412.77v8.12h-16.26v41.63c0,1.73-8.51.79-10.16,1.02v-42.65h-16.26v-8.12h42.68Z" fill="#0c273c"/><path d="M855.76,412.77v50.77c-1.46-.2-9.48.69-9.48-1.02v-49.76h9.48Z" fill="#0c273c"/><path d="M678.26,345.75v-26.4h22.02c1.61,0,6.81,2.82,8.06,4.13,3.86,4.01,3.94,12.45.77,16.88-1.6,2.25-7.55,5.39-10.19,5.39h-20.66Z" fill="#f2f1ee"/><path d="M590.86,345.75v-26.4h22.7c1.47,0,8.48,4.04,9.47,5.43,2.17,3.04,2.26,10.21.69,13.53-1.32,2.8-8.52,7.44-11.52,7.44h-21.34Z" fill="#f2f1ee"/><path d="M892.56,448.44c-.44-.53-1.83-3.07-2.04-3.72-7.77-24.31,26.24-34.08,33.18-13.52,6.92,20.48-17.69,33.41-31.14,17.25Z" fill="#f2f1ee"/><path d="M782.59,455.42v-35.2h11.18c.57,0,4.72.89,5.64,1.13,3.61.96,7.02,2.64,9.06,5.84,4.62,7.26,3.84,20.6-4.26,25.11-1.13.63-7.46,3.11-8.4,3.11h-13.21Z" fill="#f2f1ee"/></svg>